<svg width="14" height="14" viewBox="0 0 14 14" fill="none" xmlns="http://www.w3.org/2000/svg">
<path opacity="0.6" d="M4.00005 5.6H2.80005V0.56C2.80005 0.25032 3.06825 0 3.40005 0H10.6C10.9318 0 11.2 0.25032 11.2 0.56V3.92H10V1.12H4.00005V5.6Z" fill="#3A416F"/>
<path fill-rule="evenodd" clip-rule="evenodd" d="M8.16667 4.90002H13.4167C13.7393 4.90002 14 5.15426 14 5.46877V13.4313C14 13.7458 13.7393 14 13.4167 14H0.583333C0.26075 14 0 13.7458 0 13.4313V7.74377C0 7.42926 0.26075 7.17502 0.583333 7.17502H5.83333C6.15592 7.17502 6.41667 7.42926 6.41667 7.74377V12.8625H7.58333V5.46877C7.58333 5.15426 7.84408 4.90002 8.16667 4.90002ZM2.33333 12.2938H4.08333V11.1563H2.33333V12.2938ZM4.08333 10.0188H2.33333V8.88127H4.08333V10.0188ZM9.91667 12.2938H11.6667V11.1563H9.91667V12.2938ZM11.6667 10.0188H9.91667V8.88127H11.6667V10.0188ZM9.91667 7.74377H11.6667V6.60627H9.91667V7.74377Z" fill="#3A416F"/>
</svg>
