<svg width="15" height="15" viewBox="0 0 15 15" fill="none" xmlns="http://www.w3.org/2000/svg">
<path opacity="0.596982" d="M7 6.23154L4.3259 3.49439L5.15986 2.64076L2.57993 0L0 2.64076L2.57993 5.28152L3.41389 4.4279L5.92675 7L7 6.23154Z" fill="#3A416F"/>
<path opacity="0.596982" d="M11.6433 9C11.4384 9.02147 11.2308 9.03579 11.0199 9.03579C10.8176 9.03579 10.6166 9.02505 10.415 9.00418L8 11.6875L10.9967 14.3822C11.9126 15.2059 13.397 15.2059 14.313 14.3822C15.229 13.5586 15.229 12.2237 14.313 11.4001L11.6433 9Z" fill="#3A416F"/>
<path d="M12.6694 4.23187L10.7681 2.33063L12.7731 0.325625C12.3075 0.118125 11.7931 0 11.25 0C9.17877 0 7.50002 1.67875 7.50002 3.75C7.50002 4.12125 7.55565 4.47875 7.65627 4.8175L0.913165 10.2738C0.356291 10.7656 0.0237924 11.4731 0.00129243 12.215C-0.0218325 12.9575 0.266292 13.6844 0.79129 14.2087C1.30129 14.7194 1.97941 15 2.70066 15C3.47503 15 4.21378 14.6675 4.72628 14.0869L10.1825 7.34375C10.5213 7.44438 10.8788 7.5 11.25 7.5C13.3213 7.5 15 5.82125 15 3.75C15 3.20688 14.8819 2.6925 14.6744 2.22625L12.6694 4.23187Z" fill="#3A416F"/>
</svg>
