<svg width="14" height="14" viewBox="0 0 14 14" fill="none" xmlns="http://www.w3.org/2000/svg">
<path opacity="0.598982" d="M13.9166 3.19958L12.1666 0.282916C12.0611 0.107414 11.8714 0 11.6667 0H2.33334C2.1286 0 1.93886 0.107414 1.83342 0.282916L0.0834238 3.19958C0.0288764 3.29029 3.65816e-06 3.39414 3.65816e-06 3.49999C-0.00225067 4.78572 1.0377 5.8301 2.32342 5.83332H2.32809C2.90427 5.83479 3.46035 5.62164 3.88792 5.23541C4.77106 6.0336 6.1151 6.0336 6.99824 5.23541C7.88183 6.03536 9.2279 6.03536 10.1115 5.23541C10.7955 5.85251 11.7791 6.00833 12.6204 5.63287C13.4617 5.2574 14.0025 4.42126 14 3.49999C14 3.39414 13.9711 3.29029 13.9166 3.19958Z" fill="white"/>
<path d="M11.676 6.69955C11.1337 6.70001 10.5988 6.55766 10.1132 6.28369L10.1045 6.28833C9.27663 6.7569 8.31822 6.8308 7.44216 6.49361C7.29043 6.4357 7.14231 6.36623 6.99882 6.28568L6.99241 6.28899C6.16481 6.75789 5.20639 6.83157 4.33066 6.49361C4.17912 6.43569 4.0312 6.36623 3.88791 6.28568C3.40322 6.55889 2.86924 6.70057 2.32808 6.69955C2.13429 6.69745 1.94096 6.67752 1.75 6.63995V13.3215C1.75 13.6872 2.01117 13.9837 2.33333 13.9837H5.83333V10.0105H8.16666V13.9837H11.6666C11.9888 13.9837 12.25 13.6872 12.25 13.3215V6.6373C12.0605 6.67584 11.8685 6.69666 11.676 6.69955Z" fill="white"/>
</svg>
